<?xml version="1.0" encoding="UTF-8" standalone="no"?>
<!-- Created with Inkscape (http://www.inkscape.org/) -->

<svg
   version="1.1"
   id="svg871"
   width="592.83362"
   height="594.64771"
   xmlnsInkscape="http://www.inkscape.org/namespaces/inkscape"
   xmlnsSodipodi="http://sodipodi.sourceforge.net/DTD/sodipodi-0.dtd"
   xmlns="http://www.w3.org/2000/svg"
   xmlnsSvg="http://www.w3.org/2000/svg">
  <defs
     id="defs875" />
  <sodipodiNamedview
     id="namedview873"
     pagecolor="#ffffff"
     bordercolor="#666666"
     borderopacity="1.0"
     inkscapePageshadow="2"
     inkscapePageopacity="0.0"
     inkscapePagecheckerboard="0" />
  <inkscapeClipboard
     style="font-variation-settings:normal;opacity:1;vector-effect:none;fill:#a1a1a1;fill-opacity:1;stroke-width:1;stroke-linecap:butt;stroke-linejoin:miter;stroke-miterlimit:4;stroke-dasharray:none;stroke-dashoffset:0;stroke-opacity:1;-inkscape-stroke:none;stop-color:#000000;stop-opacity:1"
     min="-722.70809,75.129764"
     max="-129.8745,669.77744"
     geom-min="-722.70809,75.129764"
     geom-max="-129.8745,669.77744" />
  <g
     id="g877"
     transform="translate(722.70809,-75.129764)">
    <path
       style="fill:#a1a1a1"
       d="m -438.62451,669.15038 c -0.825,-0.55112 -7.2375,-1.00894 -14.25,-1.01736 -7.82312,-0.009 -12.75,-0.40173 -12.75,-1.01531 0,-0.5763 -3.12585,-1 -7.37756,-1 -5.33787,0 -7.72173,-0.41471 -8.62244,-1.5 -0.82415,-0.99304 -3.06235,-1.5 -6.62244,-1.5 -2.95766,0 -5.37756,-0.45 -5.37756,-1 0,-0.55 -1.9699,-1 -4.37756,-1 -2.6712,0 -4.8628,-0.58469 -5.62244,-1.5 -0.7149,-0.86141 -2.89568,-1.5 -5.12244,-1.5 -2.13266,0 -3.87756,-0.45 -3.87756,-1 0,-0.55 -1.03899,-1 -2.30887,-1 -1.26988,0 -3.18238,-0.66069 -4.25,-1.4682 -1.06762,-0.8075 -3.40363,-1.4825 -5.19113,-1.5 -1.7875,-0.0175 -3.25,-0.4818 -3.25,-1.0318 0,-0.55 -1.0699,-1 -2.37756,-1 -1.30765,0 -2.93775,-0.675 -3.62244,-1.5 -0.68469,-0.825 -2.53979,-1.5 -4.12244,-1.5 -1.58266,0 -2.87756,-0.45 -2.87756,-1 0,-0.55 -0.8449,-1 -1.87756,-1 -1.03265,0 -2.43775,-0.675 -3.12244,-1.5 -0.68469,-0.825 -1.73549,-1.5 -2.33511,-1.5 -1.40814,0 -17.356,-7.79437 -20.81926,-10.17523 -1.4599,-1.00362 -3.32426,-1.82477 -4.14301,-1.82477 -0.81875,0 -1.74766,-0.675 -2.06425,-1.5 -0.31658,-0.825 -1.48972,-1.5 -2.60699,-1.5 -1.11726,0 -2.03138,-0.45 -2.03138,-1 0,-0.55 -0.675,-1 -1.5,-1 -0.825,0 -1.5,-0.44143 -1.5,-0.98095 0,-0.53952 -1.125,-1.2633 -2.5,-1.60841 -1.375,-0.3451 -2.5,-1.02867 -2.5,-1.51905 0,-0.49037 -0.48002,-0.89159 -1.06672,-0.89159 -1.02025,0 -6.97493,-4.12048 -9.75471,-6.75 -0.72678,-0.6875 -1.76932,-1.25 -2.31675,-1.25 -0.54743,0 -2.65279,-1.5711 -4.67857,-3.49133 -2.02579,-1.92023 -3.98252,-3.49523 -4.3483,-3.5 -0.7672,-0.01 -3.60208,-2.38829 -11.6235,-9.75137 -3.1413,-2.88349 -6.19791,-5.24599 -6.79247,-5.25 -0.59456,-0.004 -1.6831,-1.1323 -2.41898,-2.5073 -0.73588,-1.375 -1.6773,-2.5 -2.09206,-2.5 -0.82718,0 -6.90794,-5.85225 -6.90794,-6.64835 0,-0.9202 -2.84998,-3.35165 -3.92857,-3.35165 -0.58929,0 -1.07143,-0.56392 -1.07143,-1.25316 0,-0.68924 -2.25,-3.63705 -5,-6.5507 -2.75,-2.91364 -5,-5.72472 -5,-6.24684 0,-0.52211 -0.675,-0.9493 -1.5,-0.9493 -0.825,0 -1.5,-0.675 -1.5,-1.5 0,-0.825 -0.45,-1.5 -1,-1.5 -0.55,0 -1,-0.5671 -1,-1.26022 0,-0.69312 -1.125,-2.47348 -2.5,-3.95635 -1.375,-1.48288 -2.5,-2.97292 -2.5,-3.31121 0,-0.33829 -0.5625,-1.24232 -1.25,-2.00894 -2.96752,-3.30908 -3.75,-4.44023 -3.75,-5.42107 0,-0.57322 -0.45,-1.04221 -1,-1.04221 -0.55,0 -1,-0.5671 -1,-1.26022 0,-0.69312 -1.06941,-2.41353 -2.37648,-3.82314 -1.30706,-1.40962 -2.68739,-3.54252 -3.06739,-4.73979 -0.37999,-1.19727 -1.11058,-2.17685 -1.62351,-2.17685 -0.51294,0 -0.93262,-0.675 -0.93262,-1.5 0,-0.825 -0.45,-1.5 -1,-1.5 -0.55,0 -1,-0.91412 -1,-2.03138 0,-1.11727 -0.675,-2.29041 -1.5,-2.60699 -0.825,-0.31659 -1.5,-1.33746 -1.5,-2.26862 0,-0.93115 -0.41534,-2.12051 -0.92297,-2.64301 -1.52101,-1.56554 -11.07703,-20.67101 -11.07703,-22.14644 0,-0.75148 -0.675,-1.62535 -1.5,-1.94193 -0.825,-0.31659 -1.5,-1.65246 -1.5,-2.96862 0,-1.31615 -0.45,-2.39301 -1,-2.39301 -0.55,0 -1,-1.2949 -1,-2.87756 0,-1.58265 -0.675,-3.43775 -1.5,-4.12244 -0.825,-0.68469 -1.5,-2.31479 -1.5,-3.62244 0,-1.30766 -0.45,-2.37756 -1,-2.37756 -0.55,0 -1,-1.58912 -1,-3.53138 0,-2.21652 -0.5585,-3.74571 -1.5,-4.10699 -0.84507,-0.32429 -1.5,-1.81299 -1.5,-3.4096 0,-1.5587 -0.45,-3.11211 -1,-3.45203 -0.55,-0.33992 -1,-2.13433 -1,-3.98759 0,-1.85325 -0.675,-4.04455 -1.5,-4.86955 -0.89011,-0.89011 -1.5,-3.33472 -1.5,-6.01241 0,-2.48183 -0.45,-4.79053 -1,-5.13045 -0.55,-0.33992 -1,-2.33652 -1,-4.43689 0,-2.10038 -0.675,-5.43436 -1.5,-7.40887 -0.825,-1.9745 -1.5,-6.0529 -1.5,-9.0631 0,-3.01021 -0.38989,-5.71407 -0.86642,-6.00858 -2.95621,-1.82705 -2.95621,-77.33807 0,-79.16512 0.47653,-0.29451 0.86642,-3.22337 0.86642,-6.50858 0,-3.2852 0.675,-7.5886 1.5,-9.5631 0.825,-1.97451 1.5,-5.30849 1.5,-7.40887 0,-2.10037 0.45,-4.09697 1,-4.43689 0.55,-0.33992 1,-2.61648 1,-5.05902 0,-2.44254 0.42961,-4.44098 0.95469,-4.44098 0.52508,0 1.22466,-1.6875 1.55463,-3.75 0.32997,-2.0625 1.02537,-4.53139 1.54532,-5.48643 0.51995,-0.95504 0.94536,-2.81939 0.94536,-4.14301 0,-1.32362 0.675,-2.6656 1.5,-2.98219 0.9415,-0.36128 1.5,-1.89047 1.5,-4.10699 0,-1.94226 0.45,-3.53138 1,-3.53138 0.55,0 1,-1.0699 1,-2.37756 0,-1.30765 0.675,-2.93775 1.5,-3.62244 0.825,-0.68469 1.5,-2.53979 1.5,-4.12244 0,-1.58266 0.45,-2.87756 1,-2.87756 0.55,0 1,-1.07686 1,-2.39301 0,-1.31616 0.675,-2.65203 1.5,-2.96862 0.825,-0.31658 1.5,-1.27083 1.5,-2.12055 0,-1.39236 0.48648,-2.57036 3.10465,-7.51782 0.43658,-0.825 2.27914,-4.425 4.09457,-8 1.81543,-3.575 3.63828,-6.65 4.05078,-6.83333 0.4125,-0.18334 0.75,-1.14769 0.75,-2.14301 0,-0.99533 0.675,-2.0687 1.5,-2.38529 0.825,-0.31658 1.5,-1.48972 1.5,-2.60699 0,-1.11726 0.45,-2.03138 1,-2.03138 0.55,0 1,-0.675 1,-1.5 0,-0.825 0.41968,-1.5 0.93262,-1.5 0.51293,0 1.24858,-1.0125 1.63478,-2.25 0.38619,-1.2375 0.99897,-2.475 1.36173,-2.75 0.76009,-0.57621 9.07087,-13.03891 9.07087,-13.60252 0,-0.57154 3.28173,-4.48624 5.25,-6.26259 0.9625,-0.86866 1.75,-2.11522 1.75,-2.77015 0,-0.65493 3.375,-4.6884 7.5,-8.96327 4.125,-4.27487 7.5,-8.36401 7.5,-9.08698 0,-0.72297 0.675,-1.31449 1.5,-1.31449 0.825,0 1.5,-0.3695 1.5,-0.82111 0,-1.00188 12.88086,-14.17889 13.86023,-14.17889 0.38393,0 3.83494,-2.98864 7.66891,-6.64143 3.83397,-3.65278 8.54586,-7.65437 10.47086,-8.89242 1.925,-1.23804 4.49368,-3.1994 5.70819,-4.35857 1.2145,-1.15917 2.61602,-2.10758 3.11449,-2.10758 0.49847,0 2.42978,-1.34917 4.29181,-2.99815 1.86203,-1.64898 4.62301,-3.55883 6.13551,-4.24411 1.5125,-0.68528 2.75,-1.53733 2.75,-1.89344 0,-0.35611 1.125,-0.92984 2.5,-1.27494 1.375,-0.3451 2.5,-1.06889 2.5,-1.60841 0,-0.53952 0.675,-0.98095 1.5,-0.98095 0.825,0 1.5,-0.45 1.5,-1 0,-0.55 0.91412,-1 2.03138,-1 1.11727,0 2.29041,-0.675 2.60699,-1.5 0.31659,-0.825 1.33746,-1.5 2.26862,-1.5 0.93115,0 2.15436,-0.46134 2.71823,-1.02521 1.57764,-1.57765 20.44218,-10.97479 22.03162,-10.97479 0.77326,0 1.66495,-0.675 1.98153,-1.5 0.31659,-0.825 1.65246,-1.5 2.96862,-1.5 1.31615,0 2.39301,-0.449997 2.39301,-0.999997 0,-0.55 1.2949,-1 2.87756,-1 1.58265,0 3.43775,-0.675 4.12244,-1.5 0.68469,-0.825 2.31479,-1.5 3.62244,-1.5 1.30766,0 2.37756,-0.45 2.37756,-1 0,-0.55 1.4625,-1.014312 3.25,-1.031803 1.7875,-0.01749 4.12351,-0.692492 5.19113,-1.5 1.06762,-0.807509 2.98012,-1.468197 4.25,-1.468197 1.26988,0 2.30887,-0.45 2.30887,-1 0,-0.55 1.81412,-1 4.03138,-1 2.66097,0 4.22706,-0.509908 4.60699,-1.5 0.38913,-1.014058 1.97965,-1.5 4.9096,-1.5 2.3837,0 4.61211,-0.45 4.95203,-1 0.33992,-0.55 2.21097,-1 4.15789,-1 1.94692,0 4.95786,-0.650188 6.69098,-1.444861 3.18529,-1.460527 5.00731,-1.67198 30.07359,-3.49018 7.65735,-0.555432 14.38485,-1.472269 14.95,-2.037417 1.37765,-1.377649 21.91213,-1.34295 23.29445,0.03936 0.58679,0.586798 6.99266,1.33045 14.23527,1.65256 7.2426,0.32211 13.40405,0.967003 13.69211,1.433095 0.28806,0.466092 3.37075,0.84744 6.85042,0.84744 3.66717,0 7.53073,0.627955 9.19098,1.493839 1.57537,0.821612 4.75025,1.496612 7.05529,1.5 2.30504,0.0034 4.4691,0.456161 4.80902,1.006161 0.33992,0.55 2.56833,1 4.95203,1 2.92995,0 4.52047,0.485942 4.9096,1.5 0.37993,0.990092 1.94602,1.5 4.60699,1.5 2.21726,0 4.03138,0.45 4.03138,1 0,0.55 1.03899,1 2.30887,1 1.26988,0 3.18238,0.660688 4.25,1.468197 1.06762,0.807508 3.40363,1.482508 5.19113,1.5 1.7875,0.01749 3.25,0.481806 3.25,1.031806 0,0.55 1.0699,1 2.37756,1 1.30765,0 2.93775,0.675 3.62244,1.5 0.68469,0.825 2.53979,1.5 4.12244,1.5 1.58266,0 2.87756,0.45 2.87756,1 0,0.55 1.07686,0.999997 2.39301,0.999997 1.31616,0 2.65203,0.675 2.96862,1.5 0.31658,0.825 1.20827,1.5 1.98153,1.5 1.58944,0 20.45398,9.39714 22.03162,10.97479 0.56387,0.56387 1.78708,1.02521 2.71823,1.02521 0.93116,0 1.95203,0.675 2.26862,1.5 0.31658,0.825 1.48972,1.5 2.60699,1.5 1.11726,0 2.03138,0.45 2.03138,1 0,0.55 0.675,1 1.5,1 0.825,0 1.5,0.44143 1.5,0.98095 0,0.53952 1.125,1.26331 2.5,1.60841 1.375,0.3451 2.5,0.94533 2.5,1.33384 0,0.38851 1.575,1.45744 3.5,2.37541 1.925,0.91797 3.5,2.12632 3.5,2.68521 0,0.5589 0.48214,1.01618 1.07143,1.01618 0.58928,0 1.69867,0.5625 2.46529,1.25 3.30908,2.96753 4.44023,3.75 5.42107,3.75 0.57322,0 1.04221,0.45 1.04221,1 0,0.55 0.62686,1 1.39301,1 0.76616,0 1.65203,0.675 1.96862,1.5 0.31658,0.825 1.07434,1.5 1.68391,1.5 0.60957,0 2.374,1.2375 3.92095,2.75 3.87434,3.78806 13.09875,11.6813 14.09899,12.06439 1.18242,0.45287 16.93242,16.30644 16.94538,17.05682 0.006,0.34584 2.70598,3.53143 6,7.07909 3.29403,3.54767 5.98914,6.81017 5.98914,7.25 0,0.43984 0.675,0.7997 1.5,0.7997 0.825,0 1.5039,0.7875 1.50867,1.75 0.005,0.9625 1.57977,3.40746 3.5,5.43325 1.92023,2.02578 3.49133,3.887 3.49133,4.13604 0,0.61798 8.24704,13.05618 9.07088,13.68071 0.36275,0.275 0.97553,1.5125 1.36173,2.75 0.38619,1.2375 1.12184,2.25 1.63478,2.25 0.51293,0 0.93261,0.675 0.93261,1.5 0,0.825 0.45,1.5 1,1.5 0.55,0 1,0.91412 1,2.03138 0,1.11727 0.675,2.29041 1.5,2.60699 0.825,0.31659 1.5,1.38996 1.5,2.38529 0,0.99532 0.35061,1.95967 0.77914,2.14301 1.02306,0.43769 11.22086,20.75284 11.22086,22.3532 0,0.67938 0.675,1.79544 1.5,2.48013 0.825,0.68469 1.5,2.08979 1.5,3.12244 0,1.03266 0.45,1.87756 1,1.87756 0.55,0 1.01431,1.2375 1.0318,2.75 0.0175,1.5125 0.6925,3.62351 1.5,4.69113 0.80751,1.06762 1.4682,2.75512 1.4682,3.75 0,0.99488 0.45,1.80887 1,1.80887 0.55,0 1.01431,1.4625 1.0318,3.25 0.0175,1.7875 0.6925,4.12351 1.5,5.19113 0.80751,1.06762 1.4682,2.98012 1.4682,4.25 0,1.26988 0.45,2.30887 1,2.30887 0.55,0 1,1.7449 1,3.87756 0,2.22676 0.63859,4.40754 1.5,5.12244 0.91531,0.75964 1.5,2.95124 1.5,5.62244 0,2.40766 0.45,4.37756 1,4.37756 0.55,0 1.01431,2.3625 1.0318,5.25 0.0183,3.02174 0.65495,6.07387 1.5,7.19113 0.91887,1.21485 1.4682,4.22678 1.4682,8.05 0,3.35988 0.4248,6.53637 0.944,7.05887 0.51921,0.5225 1.1886,6.8 1.48754,13.95 0.29893,7.15 0.80331,18.12332 1.12084,24.38515 0.37885,7.47133 0.21126,11.75121 -0.48753,12.45 -0.64638,0.64638 -1.06485,6.29155 -1.06485,14.36485 0,8.2 -0.38346,13.3 -1,13.3 -0.55622,0 -1.01573,2.77362 -1.03544,6.25 -0.02,3.52066 -0.65952,7.34173 -1.46456,8.75 -0.78602,1.375 -1.44508,4.61094 -1.46456,7.19098 -0.0195,2.58004 -0.48544,4.9691 -1.03544,5.30902 -0.55,0.33992 -1,2.56138 -1,4.93657 0,2.61875 -0.5904,4.80853 -1.5,5.56343 -0.86141,0.7149 -1.5,2.89568 -1.5,5.12244 0,2.13266 -0.45,3.87756 -1,3.87756 -0.55,0 -1,1.03899 -1,2.30887 0,1.26988 -0.66069,3.18238 -1.4682,4.25 -0.8075,1.06762 -1.4825,3.40363 -1.5,5.19113 -0.0175,1.7875 -0.4818,3.25 -1.0318,3.25 -0.55,0 -1,0.81399 -1,1.80887 0,0.99488 -0.66069,2.68238 -1.4682,3.75 -0.8075,1.06762 -1.4825,3.17863 -1.5,4.69113 -0.0175,1.5125 -0.4818,2.75 -1.0318,2.75 -0.55,0 -1,0.8449 -1,1.87756 0,1.03265 -0.675,2.43775 -1.5,3.12244 -0.825,0.68469 -1.5,1.73549 -1.5,2.33511 0,1.40814 -7.79437,17.356 -10.17523,20.81926 -1.00362,1.4599 -1.82477,3.32426 -1.82477,4.14301 0,0.81875 -0.675,1.74766 -1.5,2.06425 -0.825,0.31658 -1.5,1.48972 -1.5,2.60699 0,1.11726 -0.45,2.03138 -1,2.03138 -0.55,0 -1,0.675 -1,1.5 0,0.825 -0.41968,1.5 -0.93261,1.5 -0.51294,0 -1.24352,0.97958 -1.62352,2.17685 -0.38,1.19727 -1.76032,3.33017 -3.06739,4.73979 -1.30706,1.40961 -2.37648,3.13002 -2.37648,3.82314 0,0.69312 -0.45,1.26022 -1,1.26022 -0.55,0 -1,0.48214 -1,1.07143 0,0.58928 -0.5625,1.69867 -1.25,2.46529 -2.69069,3.00038 -3.75,4.40282 -3.75,4.96472 0,0.32222 -1.125,1.79911 -2.5,3.28199 -1.375,1.48287 -2.5,3.05972 -2.5,3.5041 0,0.44438 -1.125,1.85058 -2.5,3.12489 -1.375,1.27431 -2.5,2.58001 -2.5,2.90155 0,0.32155 -2.25,2.96853 -5,5.88217 -2.75,2.91365 -5,5.78542 -5,6.38172 0,0.5963 -1.125,1.68626 -2.5,2.42214 -1.375,0.73588 -2.5,1.6773 -2.5,2.09206 0,0.98198 -5.92596,6.90794 -6.90794,6.90794 -0.41476,0 -1.35618,1.125 -2.09206,2.5 -0.73588,1.375 -1.82442,2.50992 -2.41898,2.52204 -0.59456,0.0121 -3.33102,2.03599 -6.08102,4.49749 -2.75,2.46149 -6.50431,5.82657 -8.34292,7.47795 -1.8386,1.65139 -3.6432,3.00252 -4.01022,3.00252 -0.36701,0 -1.88056,1.125 -3.36343,2.5 -1.48288,1.375 -2.97292,2.5 -3.31121,2.5 -0.33829,0 -1.24232,0.5625 -2.00894,1.25 -3.30908,2.96753 -4.44023,3.75 -5.42107,3.75 -0.57322,0 -1.04221,0.45 -1.04221,1 0,0.55 -0.5671,1 -1.26022,1 -0.69312,0 -2.41353,1.06942 -3.82314,2.37648 -1.40962,1.30707 -3.54252,2.68739 -4.73979,3.06739 -1.19727,0.38 -2.17685,1.11058 -2.17685,1.62352 0,0.51293 -0.675,0.93261 -1.5,0.93261 -0.825,0 -1.5,0.45 -1.5,1 0,0.55 -0.91412,1 -2.03138,1 -1.11727,0 -2.29041,0.675 -2.60699,1.5 -0.31659,0.825 -1.33746,1.5 -2.26862,1.5 -0.93115,0 -2.15436,0.46135 -2.71823,1.02522 -1.48907,1.48907 -20.39845,10.97478 -21.87779,10.97478 -0.68866,0 -1.8123,0.675 -2.49699,1.5 -0.68469,0.825 -2.08979,1.5 -3.12244,1.5 -1.03266,0 -1.87756,0.45 -1.87756,1 0,0.55 -1.2949,1 -2.87756,1 -1.58265,0 -3.43775,0.675 -4.12244,1.5 -0.68469,0.825 -2.31479,1.5 -3.62244,1.5 -1.30766,0 -2.37756,0.45 -2.37756,1 0,0.55 -1.4625,1.01431 -3.25,1.0318 -1.7875,0.0175 -4.12351,0.6925 -5.19113,1.5 -1.06762,0.80751 -2.98012,1.4682 -4.25,1.4682 -1.26988,0 -2.30887,0.45 -2.30887,1 0,0.55 -1.7449,1 -3.87756,1 -2.22676,0 -4.40754,0.63859 -5.12244,1.5 -0.7549,0.9096 -2.94468,1.5 -5.56343,1.5 -2.37519,0 -4.59665,0.45 -4.93657,1 -0.33992,0.55 -2.72898,1.01431 -5.30902,1.0318 -2.58004,0.0175 -5.56449,0.6925 -6.63211,1.5 -1.26542,0.95712 -4.3113,1.4682 -8.75,1.4682 -3.74488,0 -6.80887,0.42565 -6.80887,0.94588 0,0.52024 -5.9625,1.19 -13.25,1.48835 -7.2875,0.29836 -18.425,0.78052 -24.75,1.07148 -6.94712,0.31957 -12.09385,0.13229 -13,-0.47304 z m 27.5,-138.09377 c 17.49526,-1.95735 29.90792,-4.54989 40,-8.35448 8.01779,-3.02261 10.87037,-4.23005 17.5,-7.40738 15.80212,-7.57336 37.94171,-23.38937 45.92977,-32.81116 1.33637,-1.57624 4.54694,-5.34088 7.13461,-8.36588 20.24474,-23.6663 32.9489,-58.17494 32.9489,-89.5 0,-13.47122 -2.1471,-26.79722 -6.76707,-42 -1.55902,-5.13021 -1.92095,-6.11812 -4.76265,-13 -3.67449,-8.89871 -10.3048,-20.24687 -17.66135,-30.22843 l -3.85343,-5.22843 2.38945,-4.77157 c 4.10301,-8.19344 5.64177,-12.24948 5.64177,-14.87124 0,-1.3925 0.45738,-3.38643 1.0164,-4.43097 0.63547,-1.18739 0.91656,-11.84306 0.75,-28.43166 l -0.2664,-26.5325 -9.75883,5.9974 c -5.36736,3.29857 -10.20486,5.9974 -10.75,5.9974 -0.54514,0 -0.99117,0.45 -0.99117,1 0,0.55 -0.38563,1 -0.85696,1 -0.47133,0 -8.3441,4.5 -17.49505,10 -9.15095,5.5 -16.89746,10 -17.21447,10 -0.31701,0 -1.25138,0.675 -2.07638,1.5 -2.51253,2.51253 -7.49749,1.68645 -15.59357,-2.58407 -0.95504,-0.50376 -2.23703,-0.91593 -2.84887,-0.91593 -0.61184,0 -2.53045,-0.63397 -4.26357,-1.40881 -1.73312,-0.77485 -4.27613,-1.629 -5.65113,-1.89812 -1.375,-0.26911 -6.1,-1.39799 -10.5,-2.50861 -11.59718,-2.9273 -18.9691,-3.64357 -37.5,-3.64357 -18.5309,0 -25.90282,0.71627 -37.5,3.64357 -4.4,1.11062 -9.125,2.2395 -10.5,2.50861 -1.375,0.26912 -3.91801,1.12327 -5.65113,1.89812 -1.73312,0.77484 -3.84406,1.40881 -4.69098,1.40881 -0.84692,0 -1.81797,0.45 -2.15789,1 -0.33992,0.55 -1.60398,1.01431 -2.80902,1.0318 -1.20504,0.0175 -3.06449,0.6925 -4.13211,1.5 -2.70638,2.04701 -6.52545,1.82003 -10.05887,-0.59782 -1.65,-1.12906 -3.9,-2.47502 -5,-2.99102 -1.1,-0.516 -2.675,-1.3843 -3.5,-1.92954 -3.90235,-2.5791 -26.06767,-16.01342 -26.42057,-16.01342 -0.22017,0 -5.50312,-3.15553 -11.73987,-7.01229 l -11.33956,-7.0123 -0.2664,26.54739 c -0.16657,16.59868 0.1145,27.25911 0.75,28.44656 0.55902,1.04454 1.0164,2.9262 1.0164,4.18147 0,2.62284 2.56265,9.83677 5.19696,14.62959 0.99167,1.80423 1.80304,3.98571 1.80304,4.84773 0,0.86203 -2.5875,5.22986 -5.75,9.70629 -3.1625,4.47644 -6.35975,9.26995 -7.105,10.65227 -4.85303,9.00153 -9.145,18.03759 -9.145,19.25335 0,0.78464 -0.29116,1.71776 -0.64701,2.07362 -1.0702,1.0702 -4.2853,11.02528 -4.32034,13.3773 -0.018,1.20504 -0.42624,2.43424 -0.90729,2.73154 -0.48105,0.29731 -1.14023,2.91137 -1.46484,5.80902 -0.32461,2.89765 -1.02919,7.51846 -1.56575,10.26846 -1.50624,7.71994 -1.2773,29.11468 0.38523,36 0.79682,3.3 1.46479,7.66094 1.48438,9.69098 0.0196,2.03004 0.48562,3.9691 1.03562,4.30902 0.55,0.33992 1,1.58893 1,2.77558 0,5.99434 10.79098,29.62396 19.40671,42.49597 14.32579,21.40292 35.86088,39.94372 59.85648,51.53391 14.80075,7.14895 30.11753,12.69454 35.06201,12.69454 1.40622,0 2.7962,0.38742 3.08885,0.86093 0.29264,0.47351 3.5817,1.19023 7.30902,1.59271 3.72731,0.40248 9.70193,1.06926 13.27693,1.48173 9.76701,1.12688 21.44752,1.12819 31.5,0.004 z m -46,-87.36801 c -13.22178,-3.04889 -21.17556,-10.39801 -25.40118,-23.47011 -2.54464,-7.87193 -0.73292,-13.98688 4.70572,-15.8828 4.91343,-1.71283 8.5118,0.60591 10.50164,6.76709 0.9316,2.88453 1.69382,5.95426 1.69382,6.82163 0,0.86737 1.83773,3.29069 4.08385,5.38517 l 4.08386,3.80813 h 8.91614 8.91615 v -8.48818 -8.48817 l -7.41708,-7.34523 c -8.64891,-8.56512 -12.58292,-13.99505 -12.58292,-17.36763 0,-3.38803 2.39174,-7.62118 6.04081,-10.69167 l 3.11264,-2.61912 h 23.57888 23.57889 l 3.26714,2.49197 c 3.59352,2.74091 6.42164,7.59511 6.42164,11.02212 0,3.21845 -4.27243,9.01528 -12.63553,17.14387 l -7.36447,7.15797 v 8.59203 8.59204 h 8.91615 8.91614 l 4.08386,-3.80813 c 2.24612,-2.09448 4.08385,-4.4878 4.08385,-5.3185 0,-0.8307 0.70229,-3.87524 1.56065,-6.76564 1.26517,-4.26031 2.1512,-5.50359 4.67983,-6.5668 5.90839,-2.48429 11.75952,1.79621 11.75952,8.60289 0,6.88339 -3.79882,15.43671 -9.42873,21.22946 -4.8477,4.98792 -10.24739,7.7762 -18.39756,9.50011 -7.01239,1.48325 -52.93929,1.25044 -59.67371,-0.3025 z m -48.5,-65.17888 c -7.96897,-3.03499 -14.46684,-8.55755 -17.26776,-14.67594 -2.42351,-5.29394 -2.30188,-15.57537 0.25054,-21.17827 2.28372,-5.01307 9.23953,-11.41834 13.28803,-12.23631 1.52394,-0.3079 3.013,-0.95169 3.30902,-1.43065 0.69437,-1.12352 10.91406,-1.13408 13.18374,-0.0136 14.14228,6.98151 17.62771,11.84998 17.69451,24.71582 0.0374,7.21081 -0.25793,8.52613 -2.76562,12.31551 -3.39894,5.13614 -8.62623,10.04212 -10.74246,10.08215 -0.8525,0.0161 -2.03795,0.51726 -2.63434,1.11365 -1.21176,1.21176 -11.98385,2.19574 -14.31566,1.30767 z m 10.78518,-15.12826 c 4.26661,-2.72868 5.15132,-4.40607 5.14975,-9.76375 -0.002,-5.92537 -2.02589,-8.88142 -7.02037,-10.25244 -7.25074,-1.9904 -13.87808,2.91176 -13.86052,10.25244 0.0106,4.42002 1.46707,6.88239 5.65996,9.5688 3.59244,2.30169 6.68351,2.36152 10.07118,0.19495 z m 133.85051,14.29762 c -1.57537,-0.85875 -3.37537,-1.56856 -4,-1.57734 -1.54744,-0.0218 -6.72398,-4.77771 -9.47419,-8.70442 -3.20325,-4.57355 -5.55763,-14.11479 -4.2118,-17.06856 0.57767,-1.26784 1.0503,-3.19981 1.0503,-4.29329 0,-2.3175 2.41823,-6.3485 5.98474,-9.97609 2.21329,-2.25118 4.94443,-3.9708 11.25169,-7.08446 2.27665,-1.12389 11.31153,-1.10257 13.52714,0.0319 0.95504,0.48903 3.45074,1.72653 5.54601,2.75 4.52798,2.21179 8.60083,6.48602 10.96962,11.512 2.20378,4.67589 2.35927,16.62248 0.2526,19.40774 -0.8075,1.06762 -1.4825,2.57275 -1.5,3.34474 -0.0402,1.77369 -7.42583,8.64531 -11.4712,10.67284 -4.66305,2.33711 -14.45711,2.87526 -17.92491,0.98492 z m 12.14949,-14.24695 c 4.43415,-2.75308 6.17035,-5.51464 6.17035,-9.81442 0,-7.44286 -6.51797,-12.15989 -14.13198,-10.22724 -5.52902,1.40341 -7.27133,3.88541 -7.17965,10.22771 0.079,5.46547 0.67118,6.53847 5.3561,9.70492 3.22607,2.18044 6.39212,2.21572 9.78518,0.10903 z"
       id="path851" />
  </g>
</svg>
